Coordinates
version=1
nRows=38
nColumns=38
inDegrees=no

Units are S.I. units (second, meters, Newtons, ...)
If the header above contains a line with 'inDegrees', this indicates whether rotational values are in degrees (yes) or radians (no).

endheader
time	pelvis_tilt	pelvis_list	pelvis_rotation	pelvis_tx	pelvis_ty	pelvis_tz	hip_flexion_r	hip_adduction_r	hip_rotation_r	knee_angle_r	ankle_angle_r	subtalar_angle_r	mtp_angle_r	hip_flexion_l	hip_adduction_l	hip_rotation_l	knee_angle_l	ankle_angle_l	subtalar_angle_l	mtp_angle_l	lumbar_extension	lumbar_bending	lumbar_rotation	arm_flex_r	arm_add_r	arm_rot_r	elbow_flex_r	pro_sup_r	wrist_flex_r	wrist_dev_r	arm_flex_l	arm_add_l	arm_rot_l	elbow_flex_l	pro_sup_l	wrist_flex_l	wrist_dev_l
45	0.730434	1.4652	0.929075	0.680904	0.873173	1.05096	0.0554807	0.00339654	-0.397499	0.208526	-0.360581	0	0	0.0178096	-0.154587	-0.274641	0.0804672	-0.494674	0	0	0.13247	0.0921254	-0.293793	0.221171	-0.159588	0.541865	0.1181	1.5708	0	0	-0.300521	-0.226351	0.14914	0.68442	1.28517	0	0
45.01	0.723444	1.46541	0.93527	0.680756	0.872941	1.05102	0.0581953	0.00207583	-0.396193	0.213024	-0.358846	0	0	0.0197441	-0.153777	-0.276912	0.0836262	-0.493733	0	0	0.130648	0.0922116	-0.294367	0.222316	-0.15955	0.542415	0.116232	1.5708	0	0	-0.300118	-0.226817	0.147546	0.689419	1.28567	0	0
45.02	0.717041	1.46577	0.940615	0.680636	0.872698	1.05107	0.0609909	0.000680112	-0.395295	0.217898	-0.357042	0	0	0.0213645	-0.152906	-0.278428	0.0866016	-0.492689	0	0	0.128489	0.0922526	-0.294883	0.223593	-0.159337	0.54274	0.114491	1.5708	0	0	-0.299954	-0.227299	0.145445	0.694646	1.28621	0	0
45.03	0.708192	1.46595	0.947971	0.680543	0.872397	1.0511	0.0645856	-0.00116678	-0.394552	0.223362	-0.355344	0	0	0.0232746	-0.151838	-0.279879	0.089432	-0.491621	0	0	0.126398	0.0922597	-0.295088	0.225128	-0.159028	0.542771	0.112736	1.5708	0	0	-0.299929	-0.227749	0.142808	0.70026	1.28682	0	0
45.04	0.698813	1.46583	0.955653	0.680435	0.872074	1.05112	0.0685704	-0.00281371	-0.393763	0.229157	-0.353655	0	0	0.0255743	-0.150903	-0.281475	0.0924729	-0.49053	0	0	0.12454	0.0925399	-0.294957	0.226766	-0.159077	0.542837	0.111124	1.5708	0	0	-0.299647	-0.228077	0.140278	0.705706	1.28803	0	0
45.05	0.688399	1.46557	0.964217	0.680308	0.871739	1.05113	0.0728617	-0.00450121	-0.392506	0.235199	-0.351905	0	0	0.0280992	-0.149991	-0.283073	0.0957335	-0.48936	0	0	0.122744	0.0928825	-0.294596	0.228302	-0.159239	0.542414	0.109525	1.5708	0	0	-0.299277	-0.228329	0.137748	0.711022	1.28965	0	0
45.06	0.67717	1.46538	0.973542	0.6802	0.871419	1.0511	0.0772548	-0.00645653	-0.39134	0.24138	-0.350104	0	0	0.0306336	-0.149077	-0.284754	0.0992327	-0.488062	0	0	0.120906	0.0931153	-0.294068	0.229776	-0.159282	0.541196	0.107625	1.5708	0	0	-0.299132	-0.22861	0.134908	0.716694	1.29119	0	0
45.07	0.665642	1.46541	0.983011	0.680116	0.871093	1.05107	0.0815251	-0.00862416	-0.390111	0.247553	-0.348284	0	0	0.0329745	-0.148132	-0.286426	0.102912	-0.486631	0	0	0.118705	0.0932972	-0.29346	0.231645	-0.159264	0.539901	0.105444	1.5708	0	0	-0.298748	-0.228892	0.131944	0.72202	1.29275	0	0
45.08	0.653971	1.46559	0.992128	0.680058	0.870713	1.05107	0.0858169	-0.0107072	-0.388286	0.253868	-0.346396	0	0	0.0350359	-0.146897	-0.288187	0.106217	-0.485184	0	0	0.116018	0.0936675	-0.292475	0.234044	-0.159072	0.538324	0.102927	1.5708	0	0	-0.297821	-0.229071	0.129038	0.726564	1.29429	0	0
45.09	0.639655	1.4658	1.0035	0.679979	0.87022	1.05105	0.0907958	-0.0130766	-0.385667	0.26102	-0.344339	0	0	0.0373716	-0.145175	-0.289974	0.10958	-0.483694	0	0	0.113112	0.0940094	-0.290759	0.236825	-0.158937	0.536797	0.100065	1.5708	0	0	-0.296425	-0.229158	0.126223	0.730869	1.29578	0	0
45.1	0.62382	1.46618	1.01605	0.679916	0.869702	1.05101	0.0966295	-0.0159347	-0.382933	0.269891	-0.342035	0	0	0.0396353	-0.143185	-0.292056	0.113112	-0.48213	0	0	0.110031	0.0941484	-0.288487	0.239673	-0.158625	0.535023	0.0968529	1.5708	0	0	-0.295106	-0.229248	0.12312	0.735682	1.29712	0	0
45.11	0.607099	1.46673	1.02915	0.679878	0.869173	1.05097	0.102698	-0.0190202	-0.379993	0.279435	-0.339179	0	0	0.0419659	-0.141227	-0.294858	0.117233	-0.480263	0	0	0.106552	0.094315	-0.286	0.243156	-0.15806	0.532729	0.0926337	1.5708	0	0	-0.293714	-0.229068	0.119193	0.74032	1.2986	0	0
45.12	0.590819	1.46757	1.04165	0.679855	0.868622	1.05097	0.10841	-0.0221002	-0.376291	0.288566	-0.336629	0	0	0.0441813	-0.139267	-0.297877	0.121804	-0.47842	0	0	0.10254	0.0944769	-0.283286	0.246896	-0.157306	0.530157	0.0880942	1.5708	0	0	-0.291917	-0.228807	0.11522	0.744298	1.29985	0	0
45.13	0.573043	1.46868	1.05492	0.67988	0.868054	1.05099	0.114268	-0.02535	-0.371463	0.298354	-0.333711	0	0	0.0464	-0.137241	-0.302339	0.127171	-0.476157	0	0	0.0980125	0.0944436	-0.279573	0.251097	-0.156055	0.526264	0.0824248	1.5708	0	0	-0.290013	-0.228245	0.110237	0.748223	1.30142	0	0
45.14	0.554743	1.46974	1.06841	0.679892	0.867441	1.05103	0.120092	-0.0283059	-0.365354	0.307493	-0.33115	0	0	0.048939	-0.135212	-0.306369	0.133087	-0.473935	0	0	0.0935378	0.0947597	-0.27565	0.255574	-0.155093	0.522794	0.0766939	1.5708	0	0	-0.287673	-0.227369	0.105722	0.751238	1.30325	0	0
45.15	0.531153	1.47063	1.0872	0.679896	0.866772	1.05101	0.12669	-0.0316821	-0.358758	0.317136	-0.32865	0	0	0.0523608	-0.132753	-0.310134	0.139681	-0.471614	0	0	0.0893528	0.0947936	-0.271803	0.26028	-0.153985	0.519282	0.0707346	1.5708	0	0	-0.285391	-0.22666	0.101612	0.754292	1.30546	0	0
45.16	0.505843	1.47169	1.10778	0.679898	0.866057	1.05098	0.133068	-0.0352143	-0.352413	0.32654	-0.326187	0	0	0.0559838	-0.130238	-0.313651	0.146997	-0.469092	0	0	0.0848389	0.0946837	-0.268146	0.265389	-0.152841	0.516277	0.064592	1.5708	0	0	-0.283142	-0.226224	0.0978757	0.757493	1.30781	0	0
45.17	0.47632	1.47239	1.13274	0.679864	0.865299	1.05088	0.139563	-0.0388187	-0.346113	0.335177	-0.323741	0	0	0.0602569	-0.127228	-0.316185	0.154189	-0.466431	0	0	0.0806828	0.0943961	-0.265076	0.270692	-0.151522	0.513353	0.0584563	1.5708	0	0	-0.281188	-0.225734	0.0939678	0.760644	1.30979	0	0
45.18	0.446434	1.47249	1.15845	0.679781	0.864554	1.05071	0.146141	-0.0421327	-0.340448	0.343124	-0.321256	0	0	0.065557	-0.124382	-0.318465	0.162124	-0.463401	0	0	0.0771518	0.0944147	-0.262738	0.275919	-0.150373	0.510632	0.0526564	1.5708	0	0	-0.279645	-0.224978	0.0898007	0.763837	1.31164	0	0
45.19	0.415889	1.47234	1.18551	0.679707	0.863843	1.05044	0.152908	-0.0456888	-0.336653	0.351354	-0.318567	0	0	0.0717123	-0.121916	-0.320349	0.171484	-0.459783	0	0	0.0741155	0.0943527	-0.261266	0.280927	-0.149407	0.509124	0.0472679	1.5708	0	0	-0.27878	-0.224462	0.085649	0.767546	1.31372	0	0
45.2	0.389	1.47268	1.20903	0.679608	0.863027	1.05015	0.159288	-0.0492787	-0.333698	0.359874	-0.3162	0	0	0.0776947	-0.119603	-0.321817	0.181512	-0.456254	0	0	0.0701917	0.0945476	-0.259912	0.285962	-0.148809	0.50839	0.0431437	1.5708	0	0	-0.277637	-0.224276	0.0821849	0.771476	1.3156	0	0
45.21	0.362371	1.47258	1.23222	0.679467	0.862086	1.04977	0.166374	-0.0526912	-0.330361	0.369256	-0.313343	0	0	0.0848132	-0.11775	-0.32322	0.193111	-0.451795	0	0	0.0660009	0.0950278	-0.258787	0.291627	-0.148163	0.507693	0.0392198	1.5708	0	0	-0.276612	-0.224096	0.0783156	0.776088	1.31764	0	0
45.22	0.333196	1.47172	1.25763	0.679329	0.861106	1.04921	0.174718	-0.056236	-0.325913	0.379475	-0.309466	0	0	0.0935055	-0.116172	-0.325871	0.206483	-0.445408	0	0	0.0622741	0.0956797	-0.258025	0.298066	-0.147428	0.507852	0.03498	1.5708	0	0	-0.27631	-0.223681	0.0734358	0.781422	1.3202	0	0
45.23	0.308282	1.47097	1.27913	0.679194	0.860124	1.04861	0.183087	-0.0595922	-0.32233	0.390293	-0.305542	0	0	0.102347	-0.115214	-0.327845	0.220744	-0.438836	0	0	0.0584533	0.0968369	-0.257687	0.304006	-0.147144	0.50864	0.0320101	1.5708	0	0	-0.275939	-0.223013	0.0684122	0.786372	1.32259	0	0
45.24	0.285747	1.4701	1.29862	0.67901	0.859095	1.04792	0.191898	-0.0628739	-0.31903	0.402087	-0.301372	0	0	0.111637	-0.11455	-0.329262	0.235609	-0.432094	0	0	0.0544431	0.0983705	-0.257688	0.309722	-0.147251	0.509451	0.030093	1.5708	0	0	-0.275488	-0.222233	0.0632677	0.791479	1.3248	0	0
45.25	0.26496	1.4689	1.31647	0.678803	0.858015	1.0471	0.201284	-0.0659261	-0.315439	0.414475	-0.296868	0	0	0.121653	-0.114267	-0.330742	0.251317	-0.425061	0	0	0.0505293	0.100287	-0.257667	0.315365	-0.147888	0.510785	0.029074	1.5708	0	0	-0.274927	-0.221407	0.0581998	0.796579	1.32705	0	0
45.26	0.242815	1.4673	1.33553	0.678596	0.856912	1.04612	0.211675	-0.0691039	-0.310917	0.427825	-0.292139	0	0	0.132429	-0.114134	-0.33316	0.267922	-0.417616	0	0	0.0470307	0.102173	-0.257594	0.320721	-0.148822	0.512213	0.0289047	1.5708	0	0	-0.274753	-0.220602	0.0529478	0.801961	1.32957	0	0
45.27	0.218876	1.46534	1.35614	0.678385	0.855747	1.04498	0.223182	-0.0725138	-0.305344	0.442983	-0.286951	0	0	0.143701	-0.114052	-0.336211	0.285004	-0.409856	0	0	0.0436367	0.103987	-0.257165	0.32592	-0.150025	0.513266	0.0293767	1.5708	0	0	-0.274539	-0.219738	0.0474514	0.807507	1.33236	0	0
45.28	0.196196	1.46345	1.37549	0.678165	0.854557	1.04375	0.234871	-0.0760809	-0.300253	0.459121	-0.281067	0	0	0.154895	-0.113917	-0.338621	0.302254	-0.40161	0	0	0.039859	0.105894	-0.256544	0.331058	-0.1514	0.513632	0.0303166	1.5708	0	0	-0.274284	-0.218844	0.0416439	0.813495	1.33544	0	0
45.29	0.173202	1.46156	1.39519	0.677976	0.853382	1.04237	0.246434	-0.0799284	-0.295348	0.474793	-0.27486	0	0	0.166073	-0.11394	-0.340385	0.32013	-0.392749	0	0	0.0359247	0.107597	-0.25587	0.335958	-0.1528	0.513003	0.0317418	1.5708	0	0	-0.274421	-0.218044	0.0352864	0.820142	1.33858	0	0
45.3	0.149778	1.45999	1.41493	0.677835	0.85216	1.04087	0.258329	-0.0837994	-0.289863	0.491828	-0.268036	0	0	0.176903	-0.113929	-0.342453	0.338334	-0.383332	0	0	0.0312793	0.109165	-0.254692	0.341004	-0.154381	0.512238	0.0334801	1.5708	0	0	-0.274461	-0.217201	0.0283095	0.826911	1.34135	0	0
45.31	0.125532	1.4582	1.43551	0.677672	0.850915	1.03921	0.271078	-0.0878561	-0.284192	0.510565	-0.260412	0	0	0.188073	-0.113973	-0.344946	0.356931	-0.373371	0	0	0.0266432	0.110674	-0.25332	0.346054	-0.156212	0.511308	0.0352467	1.5708	0	0	-0.274272	-0.216082	0.0207645	0.833338	1.34406	0	0
45.32	0.099524	1.45566	1.4578	0.677527	0.849646	1.03726	0.285112	-0.0920259	-0.277927	0.529681	-0.251818	0	0	0.200397	-0.113903	-0.347501	0.376396	-0.36217	0	0	0.0227766	0.111896	-0.252068	0.351109	-0.157955	0.510124	0.0367874	1.5708	0	0	-0.274586	-0.214648	0.0118764	0.839992	1.34737	0	0
45.33	0.074787	1.45242	1.47837	0.677465	0.848299	1.03502	0.300843	-0.0958297	-0.27342	0.548818	-0.24335	0	0	0.213971	-0.114446	-0.350111	0.397488	-0.350096	0	0	0.0194013	0.113216	-0.250495	0.356357	-0.159632	0.508902	0.0381673	1.5708	0	0	-0.275226	-0.213097	0.00218635	0.847101	1.35122	0	0
45.34	0.0534318	1.44724	1.49464	0.677478	0.846873	1.03248	0.31904	-0.0997615	-0.267116	0.571166	-0.233472	0	0	0.230231	-0.116115	-0.352999	0.420689	-0.336054	0	0	0.0175587	0.115014	-0.248161	0.361498	-0.161384	0.505899	0.0396022	1.5708	0	0	-0.276228	-0.210811	-0.00874828	0.854318	1.35576	0	0
45.35	0.0299313	1.44201	1.51413	0.677313	0.84566	1.02961	0.337225	-0.103678	-0.258936	0.592453	-0.218929	0	0	0.24684	-0.117159	-0.355503	0.444968	-0.316985	0	0	0.0151849	0.116135	-0.25083	0.362264	-0.167019	0.527344	0.0534321	1.5708	0	0	-0.281265	-0.203025	-0.0358551	0.863844	1.37575	0	0
45.36	0.0172645	1.43915	1.52453	0.677121	0.844255	1.02682	0.352591	-0.106934	-0.253322	0.615029	-0.211504	0	0	0.261855	-0.119275	-0.355865	0.47008	-0.305828	0	0	0.0113081	0.118746	-0.248535	0.371258	-0.166043	0.511044	0.046041	1.5708	0	0	-0.279156	-0.203087	-0.0393238	0.868908	1.37619	0	0
45.37	0.000520421	1.4359	1.53957	0.676896	0.842922	1.02359	0.368989	-0.110113	-0.247209	0.633732	-0.204238	0	0	0.277593	-0.121021	-0.355865	0.496465	-0.293151	0	0	0.00863607	0.120816	-0.249028	0.378167	-0.166088	0.501958	0.0415717	1.5708	0	0	-0.278933	-0.203225	-0.0438652	0.87433	1.37703	0	0
